# xmcd
#
# Track frame offsets:
#	150
#	25526
#	52443
#	70851
#	90743
#	108333
#	123574
#	141138
#	158362
#	178332
#	203425
#	220478
#	257166
#	295046
#	311999
#	327450
#
# Disc length: 4716 seconds
#
# Revision: 0
# Processed by: cddbd v1.5.2PL0 Copyright (c) Steve Scherf et al.
# Submitted via: dBpowerAMP V4.0
#
DISCID=f3126a10
DTITLE=Various Artist - Harpin' On It
DYEAR=1900
DGENRE=Blues
TTITLE0=Jack Daniels And Me
TTITLE1=Brought Up The Hard Way
TTITLE2=No Educated Woman
TTITLE3=Two Old Maids
TTITLE4=Bob's Number 2
TTITLE5=Doggy Style
TTITLE6=My Little Woman
TTITLE7=Automobile
TTITLE8=Things Can't Stay The Same
TTITLE9=Whoopin and Hollerin
TTITLE10=Too Hot For Me
TTITLE11=This Little Letter
TTITLE12=Reconcile
TTITLE13=Big Leg Woman
TTITLE14=Americana
TTITLE15=Death Of Ellesse
EXTD=
EXTT0=
EXTT1=
EXTT2=
EXTT3=
EXTT4=
EXTT5=
EXTT6=
EXTT7=
EXTT8=
EXTT9=
EXTT10=
EXTT11=
EXTT12=
EXTT13=
EXTT14=
EXTT15=
PLAYORDER=
